<?xml version="1.0" encoding="UTF-8"?>
<svg version="1.1" xmlns="http://www.w3.org/2000/svg" width="1784" height="1776">
<path d="M0 0 C12.11382498 0.12675305 24.22647433 0.18898047 36.34094726 0.20046328 C37.14496295 0.20123448 37.94897864 0.20200568 38.77735845 0.20280025 C39.58021705 0.20355649 40.38307565 0.20431273 41.2102633 0.20509188 C42.8279032 0.20662893 44.44554308 0.20818832 46.06318294 0.20977019 C47.26074987 0.21092898 47.26074987 0.21092898 48.48251007 0.21211119 C60.96530024 0.22654288 73.44787961 0.29312346 85.93044918 0.36538031 C90.40260198 0.39066647 94.87471081 0.40856762 99.34691725 0.42088649 C106.40286375 0.44055226 113.45786986 0.48314565 120.51331816 0.57156179 C123.72231 0.61139894 126.9302553 0.63750707 130.1395217 0.64062212 C143.61134249 0.66220651 155.03423346 1.33765802 167.36612616 7.0827999 C171.69609771 9.09091892 175.8713092 10.15665656 180.54285155 10.98293398 C181.35442214 11.14258135 182.16599273 11.30222872 183.00215636 11.46671389 C184.72170313 11.80470035 186.44253304 12.13622106 188.16455565 12.46135806 C192.8673959 13.35471234 197.5564629 14.31540023 202.24597655 15.27590273 C203.21105132 15.47318469 204.17612609 15.67046664 205.17044555 15.87372683 C268.65313926 29.00182998 331.40520538 50.33831534 389.8826953 78.28322695 C392.90935572 79.7262954 395.94567908 81.14718849 398.9842578 82.56496523 C457.01329033 109.80788438 512.55549002 144.47164738 562.34753905 184.85793398 C565.25193888 187.21332655 568.19337421 189.5157057 571.15002929 191.80495547 C582.0935727 200.29238028 592.44867771 209.45045313 602.70691405 218.74855898 C604.70788765 220.55265683 606.7300109 222.32737916 608.7655078 224.09230898 C616.71162159 231.0270992 624.41229112 238.16400122 631.81628905 245.67434023 C633.75991802 247.58868665 635.75643206 249.38094473 637.8280078 251.15480898 C644.74977365 257.11138836 651.05281225 263.65192058 656.98035155 270.58840273 C659.35240244 273.23209953 661.86331758 275.72372388 664.3905078 278.21730898 C668.13838675 281.92033719 671.73474818 285.69377629 675.1561328 289.70168398 C677.14963361 292.01845519 679.20605168 294.27150883 681.2655078 296.52980898 C685.13962661 300.82204516 688.81068328 305.24509572 692.4451953 309.74074648 C694.68672127 312.46924933 696.97371821 315.14672996 699.28674804 317.81423281 C704.8947612 324.2839239 710.23823844 330.90516644 715.39294921 337.74269961 C717.1438574 340.05136368 718.91326436 342.34528947 720.68347655 344.63918398 C728.75796864 355.12408716 736.53932753 365.71522275 743.8905078 376.71730898 C745.15985599 378.6028489 746.42940137 380.48825608 747.69910155 382.37355898 C765.65984645 409.10867495 782.23575743 436.43944983 797.37634765 464.87697695 C798.80608246 467.55894 800.24775713 470.2341614 801.69128905 472.90871523 C809.36585131 487.22719646 816.21965746 501.90923743 822.8905078 516.71730898 C823.42434081 517.8993793 823.95817382 519.08144961 824.50818358 520.29934023 C844.27312554 564.31497003 860.45069741 610.10654347 872.8905078 656.71730898 C873.18024474 657.79954745 873.18024474 657.79954745 873.47583495 658.90364932 C885.17312463 702.71179142 893.3056403 747.19873195 898.1405078 792.27980898 C898.2177307 792.9890552 898.2949536 793.69830141 898.37451659 794.42903994 C898.95645151 799.85245143 899.44326115 805.2812254 899.8905078 810.71730898 C899.97771087 811.76212435 900.06491393 812.80693972 900.15475951 813.88341616 C901.9392254 835.98013957 902.25410843 857.99908766 902.20856582 880.15754412 C902.2029228 882.94682465 902.20010388 885.73609909 902.19748412 888.52538393 C902.16040086 915.69074531 901.71514687 942.67754067 898.8905078 969.71730898 C898.71148577 971.49152892 898.53278453 973.26578125 898.35437499 975.04006289 C891.88323528 1038.58688119 879.62699935 1101.0392469 859.5500537 1161.72365664 C858.91134747 1163.65431556 858.2762198 1165.58612288 857.64148436 1167.51809023 C837.65680173 1228.00356001 810.83201115 1287.18012141 777.8905078 1341.71730898 C777.27771972 1342.74066348 776.66493163 1343.76401797 776.03357421 1344.8183832 C751.18213453 1386.25868443 722.65286182 1425.39026909 691.25867186 1462.11086367 C689.86534224 1463.74685741 688.48270811 1465.39143266 687.1014453 1467.03762148 C679.66020418 1475.86657747 671.81494959 1484.26793801 663.86023436 1492.63430117 C661.41845436 1495.21651076 659.00670723 1497.82550657 656.59558593 1500.43630312 C651.01153539 1506.47369797 645.31958111 1512.3909019 639.5155078 1518.21730898 C638.87355468 1518.86385439 638.23160155 1519.5103998 637.5701953 1520.1765375 C633.72817709 1524.0061525 629.7586202 1527.62681343 625.6536914 1531.17238711 C623.63949336 1532.93725074 621.75035531 1534.79103835 619.8905078 1536.71730898 C616.7407075 1539.9099221 613.47831292 1542.88892178 610.0780078 1545.81105898 C607.53539381 1548.02676546 605.05940582 1550.3082949 602.5780078 1552.59230898 C598.08902724 1556.68611107 593.47807305 1560.57200566 588.7498828 1564.38527773 C586.25231004 1566.42223257 583.79797702 1568.50088525 581.35486327 1570.60256289 C573.76720124 1577.11792859 565.86374222 1583.17450821 557.88611327 1589.20217226 C556.09856675 1590.55934301 554.32149473 1591.92828458 552.55066405 1593.30715273 C505.49185188 1629.92163837 453.59285831 1660.42022111 400.11609374 1686.6230707 C398.5284023 1687.40367986 396.94339916 1688.18976669 395.36023436 1688.97951601 C318.74118621 1727.15265873 236.55457754 1750.16501993 148.7786914 1764.98342226 C139.94425891 1766.47850044 131.12593621 1768.03135054 122.32431327 1769.71125697 C85.09274142 1776.79221682 49.67263165 1779.23108744 11.79407226 1778.81197451 C7.02950218 1778.76710394 2.26557102 1778.78409822 -2.49909784 1778.80273728 C-8.55054122 1778.82520393 -14.60111728 1778.80684734 -20.65248765 1778.77083491 C-23.15328689 1778.75887109 -25.65414983 1778.75582984 -28.1549672 1778.763072 C-43.98396587 1778.78005166 -58.02630811 1776.82316292 -73.23536195 1772.36856936 C-80.47457301 1770.24930262 -87.73210022 1769.17381985 -95.21218385 1768.33919619 C-97.55628488 1768.07730535 -99.89650328 1767.79089571 -102.23717774 1767.50002383 C-106.36982202 1766.98941681 -110.50432881 1766.49646525 -114.63976564 1766.00905703 C-139.45250377 1763.07793583 -163.78073875 1759.45438471 -188.1094922 1753.71730898 C-189.53770017 1753.38407547 -190.96592301 1753.05090567 -192.39416017 1752.71779726 C-267.95634637 1734.99914584 -341.03509058 1707.61759348 -532.1094922 1592.71730898 C-533.26032686 1591.82511483 -534.41137452 1590.93319535 -535.5626172 1590.04152773 C-541.96957294 1585.06236743 -548.25816073 1579.97262893 -554.42589845 1574.69973086 C-557.77656696 1571.8353179 -561.17220163 1569.04058506 -564.6094922 1566.27980898 C-569.3644027 1562.41340731 -573.87610865 1558.33202031 -578.3438672 1554.14138125 C-581.19500085 1551.46844345 -584.08217742 1548.85238311 -587.0313672 1546.28762148 C-598.5515662 1536.25350213 -609.42269638 1525.50287784 -620.2344922 1514.71730898 C-620.72531282 1514.22907656 -621.21613343 1513.74084414 -621.7218274 1513.2378168 C-626.81555882 1508.16532749 -631.79477885 1503.05758101 -636.47326173 1497.59865664 C-639.37001358 1494.26795389 -642.44205677 1491.10185093 -645.4844922 1487.90480898 C-650.59045458 1482.50299413 -655.44683068 1477.02858921 -660.0782422 1471.21340273 C-662.13165389 1468.69007567 -664.28137277 1466.29798625 -666.4844922 1463.90480898 C-670.46632806 1459.53030072 -674.12691303 1454.97201824 -677.74840821 1450.30080508 C-680.70994703 1446.4841633 -683.72909049 1442.72519181 -686.80187501 1438.99758242 C-694.00515859 1430.2485671 -700.76720167 1421.21959554 -707.41710939 1412.0449457 C-708.99369005 1409.8765787 -710.58407159 1407.7192565 -712.1798047 1405.56496523 C-733.02243499 1377.27901695 -752.05998376 1347.42253032 -769.1094922 1316.71730898 C-769.83749024 1315.40778262 -769.83749024 1315.40778262 -770.58019532 1314.07180117 C-774.14074544 1307.6473303 -777.63727255 1301.1898712 -781.1094922 1294.71730898 C-781.62092774 1293.76968691 -782.13236329 1292.82206484 -782.65929689 1291.84572695 C-822.48887366 1217.80738283 -849.63847189 1135.98619817 -873.90236939 978.46996401 C-874.78991481 967.67872862 -875.92587617 956.97124399 -879.85418119 946.78660677 C-882.10046935 940.79339876 -882.55441334 935.45004939 -882.54528321 929.08644961 C-882.56039697 927.55000544 -882.56039697 927.55000544 -882.57581605 925.982522 C-882.60418574 922.61275468 -882.61016982 919.24343818 -882.61339845 915.87355898 C-882.62305659 913.50250414 -882.63315029 911.13145104 -882.64365663 908.7603998 C-882.66159754 903.78749811 -882.66718068 898.81475246 -882.6654004 893.8418207 C-882.66509786 887.54071882 -882.70582444 881.24064887 -882.75771703 874.93978976 C-882.79148523 870.03535948 -882.79714542 865.13116659 -882.79557122 860.2266321 C-882.79905939 857.90832857 -882.81202825 855.59001528 -882.83556832 853.27182864 C-882.96983194 838.66772993 -881.45683622 825.59753768 -877.59299745 811.49379824 C-875.95762566 805.46760437 -874.98422454 799.39401934 -874.1094922 793.21730898 C-873.93329347 791.9740082 -873.75709474 790.73070742 -873.57555665 789.44973086 C-872.5947896 781.74197424 -871.67415347 774.0289932 -870.77746095 766.31105898 C-862.63607201 696.47114412 -845.5254671 628.33139043 -820.1094922 562.71730898 C-819.85659425 562.0640967 -819.6036963 561.41088442 -819.34313478 560.73787783 C-803.56560286 520.11185195 -785.15264603 480.33518473 -763.1094922 442.71730898 C-762.18982667 441.1353876 -762.18982667 441.1353876 -761.25158204 439.5215082 C-748.56299249 417.71269595 -735.39793127 396.19682375 -720.58361329 375.75637148 C-719.03587346 373.61547664 -717.50341097 371.4642091 -715.97277345 369.31105898 C-704.7470583 353.56919286 -692.80145083 338.42418014 -680.54650392 323.4746332 C-679.2293556 321.86389015 -677.92093147 320.24602332 -676.61339845 318.62746523 C-672.29398906 313.28996282 -667.84162922 308.11859568 -663.2188672 303.04152773 C-661.36322563 300.99688564 -659.54192843 298.92946749 -657.7344922 296.84230898 C-653.95938605 292.51178492 -650.07733581 288.28128753 -646.18322267 284.0581293 C-644.26616602 281.97739903 -642.35706456 279.890337 -640.45299806 277.79763125 C-633.11936291 269.75426263 -625.5349098 261.98732751 -617.82628907 254.30373476 C-615.84398976 252.32684888 -613.86716587 250.3445986 -611.8907422 248.36184023 C-600.76968239 237.23494479 -600.76968239 237.23494479 -594.82775392 232.19045351 C-591.71384119 229.5207534 -588.77323258 226.66330169 -585.7969922 223.84230898 C-580.5700056 218.92237125 -575.25086358 214.26356216 -569.6407422 209.78371523 C-567.10811067 207.71618116 -564.70218059 205.55617557 -562.2969922 203.34230898 C-557.32878897 198.82077387 -552.10145643 194.70578693 -546.7969922 190.59230898 C-543.74865952 188.22711217 -540.74379267 185.81309586 -537.74743165 183.38259219 C-528.43399766 175.84290836 -518.82001691 168.73534219 -509.1094922 161.71730898 C-508.41130372 161.21231875 -507.71311524 160.70732851 -506.99376954 160.18703555 C-443.62615292 114.52574935 -374.3592213 77.72995189 -301.1094922 50.71730898 C-299.92242677 50.27822207 -298.73536134 49.83913516 -297.51232423 49.38674258 C-270.84964878 39.58086102 -243.72286911 30.78076242 -216.08922853 24.11608218 C-207.08897743 21.92358786 -198.28586064 19.49136251 -189.52471246 16.47136401 C-128.32900977 -4.29740547 -63.73522266 -0.67009155 0 0 Z M-328.1094922 175.71730898 C-329.42941163 176.35684512 -329.42941163 176.35684512 -330.7759961 177.00930117 C-344.54803876 183.68489056 -357.87697575 191.03180058 -371.1094922 198.71730898 C-372.0582422 199.26419375 -373.0069922 199.81107851 -373.9844922 200.37453555 C-400.24852527 215.56735087 -425.87271877 232.45503879 -450.1094922 250.71730898 C-450.80413575 251.23760683 -451.49877931 251.75790469 -452.21447267 252.29396914 C-465.66480855 262.38852331 -478.74658765 272.92868905 -491.53722657 283.84597109 C-494.76334981 286.59687079 -498.04179391 289.26561741 -501.3594922 291.90480898 C-508.58761195 297.78816227 -515.24548955 304.28966987 -521.99132814 310.71242617 C-523.937121 312.55415635 -525.89683861 314.37860975 -527.8673047 316.19387148 C-535.09286348 322.85098595 -542.15093255 329.65591892 -549.1094922 336.59230898 C-549.89888185 337.37710635 -550.68827149 338.16190371 -551.50158204 338.97048281 C-555.68528469 343.16530996 -559.71010064 347.43612445 -563.55285157 351.94631289 C-565.16836552 353.78428939 -566.86267964 355.50434044 -568.6094922 357.21730898 C-572.32136409 360.88001701 -575.71960738 364.75710327 -579.1094922 368.71730898 C-580.01688583 369.77213281 -580.92445128 370.82680885 -581.83214845 371.88137148 C-584.41797199 374.88854763 -586.99641247 377.90195702 -589.57189454 380.91799258 C-590.56328605 382.07813158 -591.55572124 383.23737993 -592.5494336 384.39553164 C-599.6395592 392.65946968 -606.45434169 401.09987224 -613.1094922 409.71730898 C-613.71454591 410.49638613 -614.31959962 411.27546328 -614.94298829 412.07814883 C-623.81693876 423.51720833 -632.34977615 435.10680454 -640.3907422 447.1465082 C-642.25692885 449.93783569 -644.13610473 452.7201796 -646.0157422 455.50246523 C-659.64323346 475.733709 -672.33338036 496.35520625 -684.1094922 517.71730898 C-684.69456544 518.77240664 -685.27963868 519.8275043 -685.88244142 520.91457461 C-726.12641107 593.72360544 -753.70180022 672.91024262 -777.1094922 813.71730898 C-777.1846808 814.45888247 -777.25986939 815.20045596 -777.33733644 815.96450137 C-785.66507553 898.81698504 -778.80002992 982.91263406 -759.1094922 1063.71730898 C-758.87579927 1064.68425692 -758.87579927 1064.68425692 -758.63738526 1065.67073916 C-747.2943806 1112.53483624 -731.03747877 1157.84922369 -711.1094922 1201.71730898 C-710.62093751 1202.80124941 -710.13238282 1203.88518984 -709.62902345 1205.00197695 C-703.61113411 1218.33918222 -697.38631502 1231.49872036 -690.39123048 1244.35256289 C-689.05150757 1246.82428785 -687.73391667 1249.30700991 -686.41808595 1251.79152773 C-678.23980064 1267.13004868 -669.24429571 1281.93796096 -660.1094922 1296.71730898 C-659.55761231 1297.61610781 -659.00573243 1298.51490664 -658.43712892 1299.4409418 C-642.9712946 1324.60585768 -625.61061202 1348.69736533 -607.1094922 1371.71730898 C-606.59531739 1372.35765078 -606.08114259 1372.99799258 -605.55138673 1373.65773867 C-595.78830422 1385.79340566 -585.89618271 1397.77735073 -575.3594922 1409.25246523 C-573.49182517 1411.29846853 -571.66579623 1413.36748055 -569.8594922 1415.46730898 C-559.46121799 1427.34769015 -548.38314378 1438.54764057 -537.2344922 1449.71730898 C-536.59920594 1450.35518343 -535.96391969 1450.99305788 -535.30938233 1451.65026186 C-526.28891385 1460.72351509 -526.28891385 1460.72351509 -516.78722657 1469.2846918 C-514.04029694 1471.63029469 -511.43098622 1474.12166665 -508.7969922 1476.59230898 C-504.00434305 1481.05110379 -499.08759391 1485.27851689 -493.98058595 1489.37746523 C-491.28340074 1491.57557944 -488.64701719 1493.82728229 -486.01916017 1496.10695742 C-479.54869383 1501.71882562 -472.9240688 1507.06320462 -466.08410157 1512.21975039 C-463.7754375 1513.97065858 -461.48151171 1515.74006554 -459.1876172 1517.51027773 C-449.38907399 1525.05592046 -439.5278127 1532.41849968 -429.24376954 1539.28957461 C-426.88704248 1540.86611772 -424.53938546 1542.45572158 -422.19152345 1544.04543398 C-392.65585903 1563.97307782 -361.95229127 1581.758888 -330.1094922 1597.71730898 C-328.98430177 1598.28191836 -327.85911134 1598.84652773 -326.69982423 1599.42824648 C-251.74442536 1636.81270417 -169.88852207 1660.72141191 -13.5001172 1673.88527773 C-11.47543844 1673.88850807 -9.45075988 1673.89187331 -7.42608155 1673.89536379 C-3.2074278 1673.90129823 1.01120565 1673.90320979 5.22986327 1673.90261172 C9.4821855 1673.90253079 13.73439922 1673.90942967 17.98669921 1673.92311953 C42.70257228 1674.00141536 67.25053114 1673.80294486 91.8905078 1671.71730898 C92.78674865 1671.64396334 93.68298949 1671.5706177 94.60638915 1671.49504946 C99.52353791 1671.08521563 104.42525531 1670.5895552 109.3280078 1670.02980898 C110.04766723 1669.94838656 110.76732665 1669.86696413 111.50879394 1669.78307436 C190.60337356 1660.72497606 266.94319872 1637.86831417 395.8905078 1574.71730898 C396.8078369 1574.18637637 397.72516601 1573.65544375 398.67029296 1573.10842226 C419.72130095 1560.9081112 440.09955715 1547.86981216 459.8905078 1533.71730898 C460.67973632 1533.15624453 461.46896483 1532.59518008 462.28210936 1532.01711367 C472.3678943 1524.84509244 482.25238903 1517.48054336 491.8905078 1509.71730898 C492.53229979 1509.20168398 493.17409179 1508.68605898 493.83533202 1508.15480898 C505.6767114 1498.62903896 517.39047412 1488.97485161 528.6405078 1478.75246523 C530.64040156 1476.94353356 532.66320213 1475.16839098 534.7030078 1473.40480898 C546.05298167 1463.47898766 556.79639157 1452.97107497 567.44031249 1442.29787539 C569.77934261 1439.95344222 572.12372978 1437.61446027 574.4686328 1435.27590273 C575.98197467 1433.76190064 577.49500661 1432.24758868 579.0076953 1430.73293398 C579.69636687 1430.04628664 580.38503844 1429.35963931 581.09457885 1428.65218447 C585.00822331 1424.7197984 588.74718351 1420.68654525 592.36554442 1416.48038577 C594.60230124 1413.89437349 596.93504882 1411.40672816 599.2655078 1408.90480898 C603.55605651 1404.26039301 607.61923195 1399.47972099 611.5858203 1394.55324648 C613.64854122 1392.01505092 615.74893307 1389.51894431 617.87390624 1387.03322695 C638.66631691 1362.70245868 657.46745493 1336.54584593 674.8905078 1309.71730898 C675.34071288 1309.02411562 675.79091796 1308.33092226 676.25476561 1307.61672305 C684.90308119 1294.23821157 692.97655033 1280.54058176 700.8905078 1266.71730898 C701.33604003 1265.94097109 701.78157226 1265.1646332 702.24060546 1264.36476992 C743.48310463 1192.21082964 773.11921807 1113.05064617 777.64609252 690.30846499 C765.87606703 647.51536035 750.71656548 605.9026283 731.8905078 565.71730898 C731.33395507 564.52589297 730.77740233 563.33447695 730.20398436 562.10695742 C717.61812243 535.24538482 703.63698182 509.28418842 687.98376952 484.0893793 C685.92360437 480.77062479 683.87683885 477.44390759 681.83191405 474.11574648 C675.57888502 463.97782374 669.21519496 454.01900594 662.14148436 444.43508242 C660.25159863 441.83999343 658.4243616 439.2020079 656.58874999 436.5683832 C646.45045369 422.04905841 635.56849899 408.15303974 624.33044921 394.47316836 C623.04685079 392.90795306 621.77087709 391.33649198 620.49597655 389.76418398 C611.20537552 378.31414595 601.56596486 367.23572416 591.49622069 356.46657656 C590.36338999 355.232468 589.24680213 353.98335327 588.14221679 352.72390078 C581.00176449 344.61214649 573.34651877 337.02229916 565.69739257 329.39382266 C563.32636217 327.02816708 560.96074359 324.65719384 558.59558593 322.28566836 C557.06791176 320.75865482 555.53992752 319.23195141 554.01160155 317.70559023 C553.31554305 317.0075075 552.61948455 316.30942477 551.90233336 315.59018801 C547.94301584 311.64946817 543.88544557 307.88133665 539.6498767 304.23856448 C537.06481511 302.00336573 534.57865365 299.6715819 532.0780078 297.34230898 C527.45751231 293.07335704 522.69944029 289.03699604 517.7967578 285.09230898 C515.08918587 282.87966956 512.43903933 280.61625078 509.79797851 278.32546328 C503.32777175 272.71487857 496.70427302 267.37080166 489.86511718 262.21486758 C487.55645311 260.46395939 485.26252731 258.69455243 482.9686328 256.92434023 C473.1700896 249.37869751 463.30882831 242.01611828 453.02478515 235.14504336 C450.66805808 233.56850025 448.32040107 231.97889638 445.97253905 230.38918398 C433.80386341 222.17940544 421.46057638 214.29785304 408.8905078 206.71730898 C407.99622069 206.1767084 407.10193358 205.63610781 406.18054686 205.07912539 C358.04802053 176.12613786 307.08464708 152.72027394 253.8905078 134.71730898 C252.79641601 134.34444766 251.70232421 133.97158633 250.57507811 133.58742617 C192.36902216 113.88980102 132.0398558 102.15897627 70.8905078 96.71730898 C70.21810058 96.65672305 69.54569335 96.59613711 68.85291015 96.53371523 C-19.38445989 88.6923296 -108.53367595 99.06794946 -328.1094922 175.71730898 Z " fill="#FF0000" transform="translate(882.1094921976328,-1.717308983206749)"/>
<path d="M0 0 C3.39775639 -0.01128856 6.79551438 -0.01921707 10.19328213 -0.02618122 C11.72525896 -0.02981803 13.25723363 -0.0345957 14.78920269 -0.04068089 C48.08558683 -0.16581671 87.90065915 2.55994999 112.93792057 27.27292728 C127.44176793 42.28792345 131.13010625 59.88516411 131.01751041 80.22849369 C130.04150387 122.66273962 112.48719416 163.33555954 83.59807682 194.02683353 C82.77629948 194.92788822 82.77629948 194.92788822 81.93792057 195.84714603 C78.32862022 199.66041176 74.33261444 202.85293355 70.16057682 206.02683353 C69.31233341 206.67241215 69.31233341 206.67241215 68.44695377 207.33103275 C67.890965 207.75400639 67.33497623 208.17698002 66.76213932 208.61277103 C57.11341934 215.71787842 57.11341934 215.71787842 51.59807682 226.02683353 C50.72408028 234.56246105 52.2733925 241.72158485 55.10588932 249.72214603 C55.6505434 251.33063923 55.6505434 251.33063923 56.2062006 252.97162724 C57.36153154 256.37111063 58.54159306 259.76136252 59.72307682 263.15183353 C60.492992 265.40125716 61.26123423 267.65125413 62.02776432 269.90183353 C66.20175092 282.14026937 66.20175092 282.14026937 70.49163151 294.33835697 C71.04544741 295.9193749 71.59916564 297.50042704 72.15276432 299.08152103 C72.530797 300.10694508 72.530797 300.10694508 72.91646671 301.15308475 C74.62083469 306.07512597 75.24194988 310.8258138 74.59807682 316.02683353 C72.6998625 319.45822097 71.44672341 320.68827915 67.81130314 322.13857365 C64.64886327 323.0127942 62.08081236 323.2860446 58.81145573 323.30149174 C57.69654758 323.31102375 56.58163944 323.32055576 55.43294621 323.33037663 C54.24220493 323.32946522 53.05146366 323.32855381 51.82463932 323.32761478 C49.96807209 323.33404247 49.96807209 323.33404247 48.07399845 323.34060001 C44.79239047 323.34779885 41.51096675 323.34472958 38.22936344 323.33902836 C34.90948717 323.33953334 31.58975156 323.36705429 28.26995182 323.38816166 C25.72568192 323.3904351 23.18141003 323.39113794 20.63713932 323.39011478 C19.45044651 323.39932453 18.2637537 323.40853428 17.0411005 323.41802311 C8.21632204 323.36899788 1.21867684 322.44633709 -5.40192318 316.02683353 C-13.11101498 305.04436905 -15.9145771 290.23497117 -19.71930599 277.57981205 C-27.32567274 250.73366675 -27.32567274 250.73366675 -45.96442318 231.15183353 C-56.6913017 225.52268261 -67.50048437 225.45704855 -79.21442318 227.27683353 C-80.00228207 227.39824711 -80.79014095 227.51966068 -81.60187435 227.64475346 C-88.13629901 228.76511739 -95.01363799 230.27556737 -100.15192318 234.71433353 C-100.68301693 235.15132572 -101.21411068 235.58831791 -101.76129818 236.03855228 C-106.96902931 242.34982644 -109.33023606 250.86741138 -112.02692318 258.46433353 C-112.45714779 259.66557865 -112.8873724 260.86682377 -113.33063412 262.10447025 C-115.76143309 268.96755026 -118.00185266 275.86884197 -120.06598568 282.85105228 C-120.28384731 283.58591358 -120.50170895 284.32077488 -120.72617245 285.0779047 C-121.78263317 288.65686699 -122.81852514 292.24024372 -123.82623959 295.83323002 C-126.49167197 305.14309695 -129.60528571 315.74885105 -138.40192318 321.02683353 C-142.49405414 322.60798081 -145.90258267 323.27860703 -150.28034115 323.2856226 C-151.98273449 323.29507908 -151.98273449 323.29507908 -153.71951962 323.3047266 C-154.93213467 323.30067814 -156.14474972 323.29662968 -157.39411068 323.29245853 C-158.65401821 323.29437199 -159.91392574 323.29628544 -161.21201229 323.29825687 C-163.87327559 323.29961602 -166.53416983 323.29694977 -169.19538021 323.28757572 C-172.58668397 323.27620505 -175.97767026 323.28273268 -179.36896229 323.29472065 C-182.627356 323.30373799 -185.8857128 323.29739964 -189.14411068 323.29245853 C-190.35267727 323.296507 -191.56124386 323.30055546 -192.80643368 323.3047266 C-206.88170005 323.22697299 -206.88170005 323.22697299 -212.90192318 319.46433353 C-215.51455499 315.21880684 -214.83577106 310.24649419 -213.90799618 305.49979496 C-213.18606719 302.67734743 -212.38638357 299.88911352 -211.55426693 297.09714603 C-211.24327557 296.02183628 -210.9322842 294.94652653 -210.61186886 293.83863163 C-209.55963754 290.22918254 -208.4845451 286.62728046 -207.40192318 283.02683353 C-207.2129874 282.39828968 -207.02405163 281.76974583 -206.82939053 281.12215519 C-203.83063017 271.15810651 -200.7669508 261.21421717 -197.6960783 251.27220631 C-195.65599118 244.66285331 -193.62421182 238.05093681 -191.59139347 231.43934536 C-191.06269714 229.71987155 -190.53389181 228.00043125 -190.00497913 226.28102398 C-186.04079314 213.39300455 -182.10410313 200.49685424 -178.19098568 187.59323978 C-177.9375395 186.75752949 -177.68409332 185.92181919 -177.42296696 185.06078434 C-175.89741726 180.02981075 -174.37263091 174.99860598 -172.84797192 169.9673624 C-165.21597333 144.78359784 -157.51707704 119.62353536 -149.67734432 94.50357914 C-143.89364412 75.96552209 -138.27601364 57.38284351 -132.81354427 38.74753666 C-123.89161267 8.38985645 -123.89161267 8.38985645 -115.58283138 3.37571049 C-106.96042828 -0.7488059 -96.96843146 0.29952903 -87.63239193 0.31980228 C-85.47086374 0.30664209 -83.30934774 0.29132493 -81.14784908 0.27398014 C-75.44923146 0.23415381 -69.750932 0.2239514 -64.05219173 0.21994877 C-58.39066893 0.21076803 -52.72934992 0.17319957 -47.0679388 0.13816166 C-36.18939661 0.07557765 -25.31105208 0.04821782 -14.43234921 0.03543949 C-9.62153619 0.0296324 -4.81078647 0.01667039 0 0 Z M-49.40192318 58.02683353 C-53.95103321 63.58015606 -56.11026533 69.05279405 -58.25739193 75.85886478 C-58.59659161 76.90597126 -58.93579128 77.95307774 -59.28526974 79.03191471 C-62.72321211 89.77490476 -65.81885631 100.61425098 -68.8220892 111.48557377 C-69.72518259 114.75326463 -70.63807369 118.01810498 -71.5523138 121.28269291 C-78.43565338 141.83730036 -78.43565338 141.83730036 -79.40192318 163.02683353 C-76.49656453 167.47566397 -73.59308261 168.4579072 -68.53034115 169.63645267 C-62.95726204 170.65863133 -57.19317039 170.21466631 -51.5498724 170.09323978 C-48.51924096 170.02930836 -45.48858769 169.98247333 -42.45763302 169.93703556 C-39.54613566 169.88926672 -36.63505849 169.82700068 -33.72391415 169.76136112 C-32.27764868 169.73040315 -30.83128782 169.70358053 -29.38486385 169.68122196 C-9.54931872 169.35609622 6.51527377 164.44551264 20.59807682 150.02683353 C21.34444401 149.32429447 22.0908112 148.62175541 22.85979557 147.89792728 C36.82004596 133.88895002 45.43794939 111.64055952 45.91057682 91.96433353 C45.83564396 82.60843082 43.50375885 73.40893607 37.59807682 66.02683353 C36.73182682 64.72745853 36.73182682 64.72745853 35.84807682 63.40183353 C26.1400206 53.15444086 7.65098577 52.30525748 -5.64752865 51.834939 C-9.16995598 51.75420663 -12.69050858 51.74493842 -16.21369076 51.76609135 C-18.36330192 51.7769542 -20.51210029 51.76603638 -22.6616888 51.75339603 C-36.97956106 51.63485561 -36.97956106 51.63485561 -49.40192318 58.02683353 Z " fill="#FF0000" transform="translate(1430.4019231796265,542.9731664657593)"/>
<path d="M0 0 C1.13143181 0.00661652 1.13143181 0.00661652 2.28572083 0.0133667 C3.99927426 0.02436324 5.71281268 0.03788686 7.42633057 0.0534668 C10.62063375 0.0806472 13.81489505 0.09618807 17.00927734 0.11132812 C23.22344086 0.14487401 29.43686697 0.20869139 35.65063477 0.28564453 C38.24431409 0.31418074 40.83808567 0.33522891 43.43188477 0.34912109 C47.22326256 0.37051311 51.0136168 0.41705022 54.8046875 0.46875 C55.95889694 0.46997864 57.11310638 0.47120728 58.30229187 0.47247314 C64.84328598 0.5916166 69.03637863 1.11235752 74.32421875 5.078125 C78.30179854 10.10243632 79.44681919 13.85626278 79.45564651 20.13947678 C79.45948766 21.16662568 79.4633288 22.19377458 79.46728635 23.25204921 C79.46641987 24.37887968 79.46555338 25.50571016 79.46466064 26.66668701 C79.46911733 28.46419336 79.46911733 28.46419336 79.47366405 30.29801297 C79.48084432 33.62560921 79.48352336 36.95315381 79.48426151 40.28075409 C79.48611286 43.86915159 79.49366061 47.45753792 79.50039673 51.04592896 C79.51397733 58.89308487 79.52000434 66.74023568 79.52440739 74.58740139 C79.52717027 79.48748063 79.5314077 84.3875579 79.53591156 89.2876358 C79.54810386 102.85531363 79.55840326 116.42298988 79.56178665 129.99067307 C79.56200622 130.85899779 79.56222578 131.72732252 79.562452 132.62196012 C79.56267028 133.49235875 79.56288856 134.36275739 79.56311345 135.25953174 C79.56355692 137.02328158 79.56400348 138.78703141 79.56445312 140.55078125 C79.56467455 141.4256615 79.56489598 142.30054176 79.56512412 143.20193353 C79.56907195 157.37739099 79.58652565 171.55279703 79.60981265 185.72823462 C79.63352968 200.28296165 79.64598866 214.83766289 79.64715457 229.39240956 C79.64807113 237.56394962 79.65381871 245.73542268 79.67197418 253.90694427 C79.68737991 260.86534927 79.69249286 267.82366658 79.68423608 274.78208539 C79.68033123 278.3314374 79.68125093 281.88061284 79.69529343 285.42994308 C79.71038849 289.28058092 79.70216089 293.13097071 79.69171143 296.98162842 C79.70379603 298.6584898 79.70379603 298.6584898 79.71612477 300.36922717 C79.67026412 307.59004917 79.31896013 314.08338362 73.94921875 319.453125 C68.07788131 323.08776246 63.35866826 323.37409112 56.59765625 323.34375 C55.65419342 323.34566345 54.71073059 323.3475769 53.73867798 323.34954834 C51.74326307 323.35090732 49.74783925 323.34723094 47.75244141 323.33886719 C44.73058642 323.32823536 41.70933569 323.33873512 38.6875 323.3515625 C36.74088412 323.35023946 34.79426862 323.34767408 32.84765625 323.34375 C31.95766937 323.34779846 31.0676825 323.35184692 30.15072632 323.35601807 C19.74493866 323.28008555 10.94334379 322.37615718 3.13671875 315.015625 C-2.72027542 305.52325513 -2.76132776 293.11289124 -3.82983398 282.25195312 C-5.02210741 268.35315779 -5.02210741 268.35315779 -11.98828125 256.640625 C-17.52565957 253.421219 -23.1597453 252.77928972 -29.45605469 252.78759766 C-30.20018616 252.78088043 -30.94431763 252.77416321 -31.71099854 252.76724243 C-34.15245383 252.74836423 -36.59363266 252.7443432 -39.03515625 252.7421875 C-40.74758005 252.73575167 -42.46000276 252.72902273 -44.17242432 252.72201538 C-47.75657701 252.71006743 -51.3406335 252.70633191 -54.92480469 252.70751953 C-59.49186382 252.70772239 -64.05829837 252.680444 -68.62520981 252.64597511 C-72.1616696 252.62361011 -75.69798147 252.61968494 -79.2345047 252.62073898 C-80.91683347 252.61839654 -82.59916718 252.60965048 -84.28142548 252.59407425 C-96.48457954 252.49167436 -107.57943348 253.1169898 -116.85986328 261.98974609 C-123.34448778 269.44732582 -127.81750696 278.77343398 -132.55078125 287.390625 C-150.24456738 319.18509851 -150.24456738 319.18509851 -160.2869873 322.14108276 C-164.60767985 323.17850171 -168.68427384 323.34830997 -173.11132812 323.30517578 C-174.31276962 323.30561386 -174.31276962 323.30561386 -175.53848267 323.30606079 C-178.15727996 323.30467955 -180.77578433 323.28917586 -183.39453125 323.2734375 C-185.22155604 323.26970307 -187.04858284 323.26685813 -188.87561035 323.26486206 C-193.66285826 323.25725944 -198.44998304 323.2376402 -203.23718262 323.2154541 C-208.13076106 323.19492274 -213.02435957 323.18584481 -217.91796875 323.17578125 C-227.50396007 323.15439089 -237.08986039 323.12029601 -246.67578125 323.078125 C-243.38363108 316.99207951 -240.06556082 310.93722003 -236.53125 304.98828125 C-236.16445129 304.37003983 -235.79765259 303.7517984 -235.41973877 303.11482239 C-234.23643081 301.12211898 -233.05003584 299.13127738 -231.86328125 297.140625 C-231.02024996 295.72347821 -230.17723263 294.30632311 -229.33422852 292.88916016 C-223.28585738 282.7320108 -217.17179655 272.61591045 -211.0222168 262.51977539 C-205.87075096 254.06060745 -200.76425376 245.57531636 -195.67578125 237.078125 C-189.85010361 227.35236491 -184.00074645 217.64161679 -178.11328125 207.953125 C-177.58900543 207.09019836 -177.58900543 207.09019836 -177.05413818 206.20983887 C-173.55477221 200.4508062 -170.05165038 194.69407193 -166.54420471 188.93995667 C-164.79519558 186.07007683 -163.04759787 183.19933982 -161.30078125 180.328125 C-160.95461761 179.75921539 -160.60845398 179.19030579 -160.25180054 178.60415649 C-154.40646022 168.99081284 -148.65523366 159.32338104 -142.92578125 149.640625 C-136.65427844 139.04214393 -130.29267811 128.51108919 -123.7734375 118.0625 C-120.40356237 112.65780075 -117.10245991 107.21215632 -113.80078125 101.765625 C-107.77658866 91.84135774 -101.65250133 81.98279315 -95.4765625 72.15234375 C-92.88545678 68.02462875 -90.32378825 63.88045409 -87.78125 59.72265625 C-80.99114018 48.65418696 -74.17698827 37.91788053 -65.67578125 28.078125 C-65.10214844 27.40394531 -64.52851562 26.72976563 -63.9375 26.03515625 C-47.71458587 8.44355954 -23.53127854 -0.1673079 0 0 Z M-13.67578125 74.078125 C-14.25525513 75.16975952 -14.25525513 75.16975952 -14.84643555 76.28344727 C-21.5152149 88.83036227 -28.19675381 101.36017992 -35.23828125 113.703125 C-41.07896936 123.94452832 -46.68320948 134.30298496 -52.25 144.6953125 C-54.98392397 149.79853424 -57.7429705 154.88732668 -60.52075195 159.96679688 C-61.52576738 161.80523583 -62.52828886 163.64504077 -63.52807617 165.48632812 C-65.73492112 169.54936607 -67.96174008 173.59488198 -70.26953125 177.6015625 C-70.65834473 178.29032471 -71.0471582 178.97908691 -71.44775391 179.6887207 C-72.46752945 181.49330358 -73.50450567 183.28813718 -74.54296875 185.08203125 C-75.97139302 187.99961088 -75.97139302 187.99961088 -74.9921875 190.8125 C-72.71157737 194.73758568 -70.46627064 197.55113207 -66.67578125 200.078125 C-60.2454748 201.30043966 -53.53937256 201.24742339 -47.01171875 201.28125 C-46.13480377 201.28695007 -45.25788879 201.29265015 -44.35440063 201.29852295 C-42.51752907 201.30788921 -40.68064133 201.31447315 -38.84375 201.31835938 C-36.05048511 201.32812604 -33.25793869 201.35925293 -30.46484375 201.390625 C-28.66797305 201.39715143 -26.87109718 201.40240331 -25.07421875 201.40625 C-24.25005463 201.4185968 -23.4258905 201.4309436 -22.57675171 201.44366455 C-16.09379914 201.41897327 -10.41312108 200.38325328 -5.30078125 196.078125 C-0.27045663 186.79137185 -1.39589885 175.1381324 -1.4453125 164.86328125 C-1.44650882 163.2005568 -1.44695651 161.53783167 -1.44670105 159.87510681 C-1.44825755 156.39968593 -1.45647508 152.92436926 -1.4699707 149.44897461 C-1.48684139 145.05511992 -1.49067479 140.66137915 -1.49019051 136.26749611 C-1.46016167 114.7287786 -1.46016167 114.7287786 -2 93.19921875 C-2.02173782 92.47033951 -2.04347565 91.74146027 -2.06587219 90.99049377 C-2.33336571 85.80372162 -3.43266427 80.77562605 -5.67578125 76.078125 C-8.64486502 74.22244765 -10.19119651 74.078125 -13.67578125 74.078125 Z " fill="#FF0000" transform="translate(1077.67578125,542.921875)"/>
<path d="M0 0 C2.29373722 -0.00072095 4.58746881 -0.002874 6.88120461 -0.00549722 C14.91106981 -0.0146637 22.94091869 -0.01884142 30.97078896 -0.01804566 C38.4192646 -0.01744074 45.86766882 -0.02809547 53.31612635 -0.04378933 C59.75999745 -0.0568765 66.20384512 -0.06222937 72.6477294 -0.06159025 C76.47621111 -0.06133649 80.30462842 -0.06412317 84.13309669 -0.0747683 C87.71862899 -0.08447437 91.30403531 -0.08451145 94.88957214 -0.07725167 C96.82011848 -0.07571628 98.7506649 -0.08402654 100.6811924 -0.09269166 C110.09279054 -0.0587392 117.46887637 0.27813745 124.35799599 7.16725707 C127.2014467 15.69760921 124.72631821 24.99241132 123.01424599 33.56203246 C122.60986504 35.59535901 122.2251815 37.63172578 121.84237099 39.6692102 C117.35772664 62.94524434 117.35772664 62.94524434 109.35799599 69.16725707 C100.84499218 73.50407033 90.79278468 73.32016347 81.45809364 73.26491332 C80.51194191 73.26345305 79.56579018 73.26199279 78.59096718 73.26048827 C76.54983047 73.25670352 74.50869696 73.25060971 72.46757317 73.24242187 C69.21875032 73.22954579 65.96996884 73.22311288 62.72112465 73.21828246 C54.64547024 73.2049766 46.56985488 73.18089888 38.49422646 73.15688109 C31.67229229 73.13697739 24.85037355 73.12140346 18.02841759 73.11131835 C14.86103704 73.10493635 11.69372146 73.09242545 8.52636147 73.07961059 C-0.67304177 73.05572492 -9.84970416 73.12630861 -19.03897667 73.58913207 C-20.14956475 73.64368812 -20.14956475 73.64368812 -21.28258896 73.6993463 C-34.60504866 74.46575552 -49.27340125 76.09472966 -59.64200401 85.16725707 C-60.30200401 85.16725707 -60.96200401 85.16725707 -61.64200401 85.16725707 C-62.06159386 86.04510863 -62.06159386 86.04510863 -62.48966026 86.94069457 C-63.56460361 89.01770374 -64.76232725 90.86368051 -66.07950401 92.79225707 C-69.77736495 98.65632057 -72.75680354 106.15994578 -71.64200401 113.16725707 C-69.71906883 116.38554811 -69.71906883 116.38554811 -67.64200401 119.16725707 C-67.64200401 119.82725707 -67.64200401 120.48725707 -67.64200401 121.16725707 C-66.77382042 121.57331176 -66.77382042 121.57331176 -65.88809776 121.98756957 C-63.63779841 123.16946593 -61.74450776 124.53085315 -59.70450401 126.04225707 C-48.51120238 133.40991016 -36.91881139 133.73734108 -23.96719933 133.78117919 C-19.28655502 133.79994768 -14.60708114 133.88755136 -9.92716026 133.96803832 C-8.56556282 133.98942115 -8.56556282 133.98942115 -7.17645836 134.01123595 C20.00699467 134.47313844 49.48184837 137.67326175 70.31893349 156.96413207 C82.26881369 169.87549689 83.17561297 185.3988555 82.57576942 202.07301879 C82.03410832 209.76922158 79.83315479 216.90109456 77.35799599 224.16725707 C77.06328407 225.05687133 76.76857216 225.94648559 76.46492958 226.86305785 C72.36298821 239.13048625 67.57998407 250.82482676 61.35799599 262.16725707 C60.75987099 263.26682738 60.16174599 264.3663977 59.54549599 265.49928832 C55.97503851 271.83525638 52.04997007 277.61329192 47.35799599 283.16725707 C46.66834755 283.99096801 45.97869911 284.81467895 45.26815224 285.66335082 C22.86346296 311.5330887 -10.1517075 320.17652737 -43.07266808 322.69331908 C-50.41492065 323.20456894 -57.72160988 323.32185526 -65.07950401 323.32838988 C-66.46098012 323.33303467 -67.84245499 323.33806146 -69.22392845 323.34343505 C-72.9279292 323.35638221 -76.63191201 323.36296614 -80.33593178 323.36744571 C-82.65539597 323.37039912 -84.97485546 323.37450741 -87.29431725 323.37894988 C-94.56862517 323.39256421 -101.8429221 323.40226615 -109.11724186 323.40615177 C-117.48634703 323.41064907 -125.85529024 323.4282993 -134.22434616 323.45715237 C-140.72063783 323.47876698 -147.21688382 323.48885556 -153.71321106 323.49019289 C-157.58317534 323.491239 -161.45298607 323.49710824 -165.32291222 323.5150125 C-168.95431043 323.53149448 -172.58543942 323.53364831 -176.21686172 323.5248735 C-178.17891334 323.52373755 -180.14095607 323.53744479 -182.10295677 323.55162597 C-189.03020063 323.51877642 -193.93622522 323.23410849 -199.45450401 318.66725707 C-202.35814125 314.99950477 -202.03232611 310.58816841 -201.64200401 306.16725707 C-200.87810498 301.73702879 -199.93308617 297.35805134 -198.92593956 292.97829223 C-198.45941808 290.93874054 -198.01376689 288.89540136 -197.56973839 286.85085082 C-192.52675272 264.22440612 -192.52675272 264.22440612 -184.32559776 258.21022582 C-176.56933201 253.40530017 -167.23702294 254.01620818 -158.4027462 253.99367309 C-157.30228966 253.98698607 -156.20183311 253.98029906 -155.0680294 253.97340941 C-152.68694454 253.95940681 -150.30584663 253.94749772 -147.92474174 253.93746161 C-144.13800439 253.92094137 -140.35136191 253.89769471 -136.56467247 253.87256408 C-125.80045815 253.80212622 -115.03620723 253.74199806 -104.27188683 253.69045043 C-97.67491207 253.65877748 -91.07804093 253.6170127 -84.48115349 253.57025504 C-81.98572572 253.55440198 -79.49027321 253.54200511 -76.9948101 253.53334785 C-40.47833508 254.78922512 -40.47833508 254.78922512 -7.80216026 241.56960082 C-1.33651456 234.62970238 -0.10237218 227.53836281 -0.36075401 218.22585082 C-0.87490607 212.63444715 -2.31432074 209.55816336 -6.26700401 205.41725707 C-13.72677426 199.85866385 -22.80845573 199.57705942 -31.76700401 199.10475707 C-33.02529015 199.02733275 -34.28357628 198.94990844 -35.57999229 198.87013793 C-38.92295428 198.66551314 -42.26614077 198.47050307 -45.61002159 198.28188109 C-119.95756187 194.08794019 -119.95756187 194.08794019 -135.86856651 176.56569457 C-146.37567304 162.35564301 -149.66738448 144.2829977 -149.88809776 126.94460082 C-149.92101586 125.17180905 -149.95422782 123.39902271 -149.98770714 121.62624145 C-150.03516345 118.85926819 -150.07967989 116.09232012 -150.11881065 113.32521605 C-150.15863343 110.63562893 -150.21012277 107.94645665 -150.26309776 105.25710082 C-150.27151192 104.43507674 -150.27992607 103.61305266 -150.2885952 102.76611876 C-150.3864496 98.19277992 -150.91295334 94.47410222 -152.64200401 90.16725707 C-158.83891787 88.76876435 -163.3665521 89.82133506 -169.39200401 91.60475707 C-171.07341613 92.08570727 -172.75567672 92.56370373 -174.43887901 93.03835082 C-175.17461143 93.25418822 -175.91034386 93.47002563 -176.6683712 93.69240355 C-178.64200401 94.16725707 -178.64200401 94.16725707 -181.64200401 94.16725707 C-180.11499977 88.92232944 -177.79326767 84.40719546 -175.14200401 79.66725707 C-174.70058067 78.87770629 -174.25915733 78.08815551 -173.80435753 77.27467895 C-167.81180378 66.74495145 -160.93737236 57.19640544 -152.64981651 48.33131957 C-150.92846087 46.47600629 -149.3454331 44.58004833 -147.76700401 42.60475707 C-125.07575726 16.05910676 -88.19744886 4.11747141 -54.64200401 1.16725707 C-36.45720027 -0.06702356 -18.21697638 0.00322971 0 0 Z " fill="#FF0000" transform="translate(433.6420040130615,542.8327429294586)"/>
<path d="M0 0 C2.30821715 0.01870403 4.61644669 0.03590228 6.92468262 0.05212402 C14.65660588 0.10656504 22.38818678 0.17370403 30.1197691 0.26499176 C33.69954649 0.3072478 37.27923092 0.34526595 40.85916138 0.37194824 C44.90298111 0.40269935 48.94614689 0.45754607 52.98968506 0.51434326 C54.81393257 0.52394325 54.81393257 0.52394325 56.67503357 0.53373718 C64.26765187 0.66556827 70.88695392 0.94646539 76.71624756 6.33856201 C81.05773894 17.01139498 77.58936836 27.98036524 73.84613037 38.25970459 C73.08856824 40.34594053 72.36915427 42.44262157 71.65374756 44.54364014 C65.12668666 63.32772404 65.12668666 63.32772404 56.65986633 67.72732544 C51.28259389 70.28201226 46.74791735 70.72477887 40.86053467 70.63787842 C39.87866684 70.64354324 38.89679901 70.64920807 37.88517761 70.65504456 C34.67091534 70.66844255 31.45780261 70.64767443 28.24359131 70.62762451 C25.99257135 70.63313076 23.74155643 70.64126083 21.49055481 70.65188599 C15.58387752 70.67470468 9.67757131 70.67057724 3.77087402 70.65808105 C-5.68506591 70.63973178 -15.14078932 70.64981897 -24.59667778 70.68394089 C-27.88764476 70.69002057 -31.17814052 70.676817 -34.46907043 70.66195679 C-36.4985262 70.6649062 -38.5279811 70.66856173 -40.55743408 70.67303467 C-41.46314148 70.66374435 -42.36884888 70.65445404 -43.30200195 70.6448822 C-50.58830278 70.69009242 -57.68810829 71.63673473 -63.09625244 76.90106201 C-69.57879507 85.44106411 -71.24906884 99.11381922 -73.9307251 109.41107178 C-74.33452189 110.9528562 -74.74375378 112.49322686 -75.15826416 114.03216553 C-78.75894036 126.34800364 -78.75894036 126.34800364 -78.78375244 139.02606201 C-76.77074088 142.2468805 -75.19274865 142.87064345 -71.65875244 144.21356201 C-62.32258114 146.17114632 -53.05923716 146.12652468 -43.55328369 146.01824951 C-42.19104096 146.00873135 -40.82879151 146.00013415 -39.46653748 145.99240112 C-33.73839963 145.95920585 -28.01042494 145.91768699 -22.28253174 145.85467529 C-18.75668963 145.81650165 -15.23101129 145.79384846 -11.70499229 145.7803688 C-9.74724537 145.76866189 -7.78961779 145.74054146 -5.83204651 145.71182251 C7.32081092 145.67482128 21.17427526 147.25442427 32.21624756 155.02606201 C35.68521783 159.80761563 35.63629718 164.36102323 34.92327881 170.04949951 C32.65526422 179.59771562 27.39694449 188.44467715 19.15374756 193.83856201 C14.55283675 196.65377279 10.68585336 197.15125449 5.31903076 197.21551514 C3.52565277 197.24066696 3.52565277 197.24066696 1.69604492 197.2663269 C0.3994696 197.27985199 -0.89710571 197.29337708 -2.23297119 197.30731201 C-3.59595339 197.32498322 -4.9589295 197.34313009 -6.32189941 197.36172485 C-9.21002842 197.40050163 -12.09817345 197.43673629 -14.98635864 197.47106934 C-19.46848951 197.52496551 -23.95046067 197.58791135 -28.43243408 197.65350342 C-29.16850104 197.66427477 -29.904568 197.67504612 -30.66294003 197.68614388 C-32.14072754 197.70784575 -33.61851424 197.72960259 -35.09630013 197.75141525 C-37.29390716 197.78379391 -39.49151908 197.81581902 -41.68913269 197.8477478 C-45.72068446 197.90640527 -49.75222155 197.96598563 -53.78375244 198.02606201 C-54.85182129 198.04197388 -55.91989014 198.05788574 -57.02032471 198.07427979 C-61.92829296 198.14963136 -66.83553107 198.23682235 -71.74264526 198.355896 C-73.65092762 198.39945669 -75.5595172 198.42885099 -77.46807861 198.45770264 C-85.2719316 198.66805813 -94.28018043 198.96293664 -100.09625244 204.83856201 C-106.97008962 214.41695146 -109.44479921 228.2454071 -112.72515869 239.46746826 C-113.17888217 241.00826317 -113.63298685 242.54894586 -114.08744812 244.08952332 C-115.27135839 248.10616945 -116.45063746 252.12415931 -117.62872314 256.14251709 C-119.28702469 261.79563829 -120.95181387 267.44685313 -122.61576843 273.09831238 C-123.49780698 276.09414771 -124.37816373 279.09046836 -125.2570343 282.0872345 C-127.1413499 288.50768148 -129.03782836 294.92458873 -130.9710083 301.33050537 C-131.27784042 302.35002792 -131.58467255 303.36955048 -131.90080261 304.41996765 C-133.97933798 310.55492473 -138.2138878 315.70017162 -143.78375244 319.02606201 C-149.17298466 320.59938406 -153.8330613 321.27246849 -159.48492432 321.25311279 C-160.20785675 321.25340485 -160.93078918 321.2536969 -161.67562866 321.2539978 C-164.03471423 321.25261872 -166.39347293 321.23712564 -168.75250244 321.22137451 C-170.40016508 321.21763931 -172.04782995 321.21479474 -173.69549561 321.21279907 C-178.00927988 321.20520253 -182.32292716 321.1855887 -186.63665771 321.16339111 C-191.04764961 321.14284649 -195.45866388 321.13377901 -199.86968994 321.12371826 C-208.50777329 321.10233865 -217.14574577 321.06825136 -225.78375244 321.02606201 C-225.14386995 312.32806044 -223.00546452 304.04492424 -220.87359619 295.61981201 C-220.67598127 294.83306595 -220.47836636 294.04631989 -220.27476311 293.23573303 C-216.07535282 276.57313014 -211.16166698 260.16394079 -206.04328918 243.76455307 C-204.8397651 239.89950875 -203.64838806 236.03072572 -202.456604 232.16204834 C-201.96805418 230.57649044 -201.47949826 228.99093441 -200.99093628 227.40538025 C-200.62735456 226.22530931 -200.62735456 226.22530931 -200.25642776 225.02139854 C-199.52429483 222.64667741 -198.79096146 220.27233013 -198.05728149 217.89808655 C-191.45382683 196.52153777 -185.02297075 175.0935284 -178.65618896 153.64537048 C-176.8882521 147.69780026 -175.09335868 141.76009828 -173.25549316 135.83377075 C-168.10061782 119.18377182 -164.16766003 103.65717727 -164.78375244 86.02606201 C-165.6110083 86.32375488 -166.43826416 86.62144775 -167.29058838 86.92816162 C-170.36881546 88.0348452 -173.44765273 89.13979718 -176.5269165 90.24359131 C-177.85789341 90.72109142 -179.18862553 91.19927445 -180.519104 91.67816162 C-182.4348004 92.36755461 -184.35137227 93.05446292 -186.26812744 93.74090576 C-187.99627686 94.36146851 -187.99627686 94.36146851 -189.75933838 94.99456787 C-192.0987095 95.7924241 -194.37557216 96.48603017 -196.78375244 97.02606201 C-195.12124401 90.91993535 -192.01228723 85.67799363 -188.90875244 80.21356201 C-188.33157471 79.19689453 -187.75439697 78.18022705 -187.159729 77.13275146 C-180.14746853 64.96267311 -172.45356591 53.37191469 -162.77593994 43.14324951 C-160.93991529 41.19202331 -159.27796757 39.17188075 -157.59625244 37.08856201 C-136.50367122 13.03135531 -103.40732904 3.3632785 -72.63165283 1.25579834 C-66.18608554 0.87097004 -59.73780778 0.64602275 -53.28375244 0.46356201 C-52.55401215 0.44271545 -51.82427185 0.4218689 -51.07241821 0.40039062 C-34.04605669 -0.07264622 -17.03155226 -0.14161747 0 0 Z " fill="#FF0000" transform="translate(719.7837524414063,928.9739379882813)"/>
<path d="M0 0 C2.20683299 -0.00067743 4.41366591 -0.00165106 6.62049866 -0.00289917 C11.2215344 -0.0043608 15.82255055 -0.00227515 20.42358398 0.00244141 C25.05087574 0.00696427 29.67812825 0.00704069 34.30541992 0.00244141 C56.30796909 -0.01942146 78.31505822 -0.03057728 100.31421089 0.40481949 C101.98161303 0.4365631 103.64910848 0.46378714 105.31666374 0.48608017 C107.58610214 0.51824897 109.8543432 0.56906007 112.12329102 0.62548828 C113.38279068 0.65087677 114.64229034 0.67626526 115.93995667 0.7024231 C120.85563224 1.30130071 125.02920783 2.50311267 128.41015625 6.3203125 C130.98409829 13.13368849 129.04651523 20.19203859 127.34765625 27.0078125 C127.12392334 27.91821289 126.90019043 28.82861328 126.66967773 29.76660156 C118.43039536 62.45126426 118.43039536 62.45126426 107.47265625 69.1328125 C94.87541535 74.01745693 79.66192674 72.20828405 66.38134766 72.03686523 C48.5616982 71.06275072 48.5616982 71.06275072 32.47265625 77.1328125 C25.35015448 87.54419695 22.30660845 100.44115337 18.78515625 112.3828125 C18.14043878 114.53309862 17.4944 116.68298894 16.84716797 118.83251953 C15.44863863 123.48261695 14.05683906 128.13465792 12.66943359 132.78808594 C10.44602417 140.23559357 8.19119132 147.67335921 5.9296875 155.109375 C5.13509711 157.72287747 4.34061313 160.33641228 3.54614258 162.94995117 C3.34580886 163.60892867 3.14547514 164.26790617 2.9390707 164.94685268 C-3.45982932 185.99953078 -9.81195349 207.06635838 -16.15234375 228.13671875 C-16.71920458 230.02022394 -17.28606859 231.90372817 -17.85293579 233.78723145 C-20.34849081 242.07973477 -22.84326894 250.37246849 -25.33449936 258.66627216 C-26.36948198 262.11110309 -27.40551109 265.55561876 -28.44174194 269.00007439 C-28.91890775 270.58707399 -29.39561761 272.17421078 -29.87179565 273.76150703 C-31.1830183 278.13209725 -32.50347567 282.49969773 -33.83660126 286.86365891 C-34.32004721 288.45182401 -34.80012008 290.04101802 -35.27765656 291.63097 C-36.04744218 294.19024699 -36.82859904 296.74583102 -37.61181641 299.30102539 C-37.84379919 300.08031875 -38.07578197 300.8596121 -38.31479454 301.66252041 C-40.27442716 307.99010165 -42.70225102 314.13071569 -47.96484375 318.4453125 C-48.52042969 318.91582031 -49.07601562 319.38632812 -49.6484375 319.87109375 C-54.32382013 323.0106958 -58.65354053 323.41629734 -64.16333008 323.35986328 C-65.29096268 323.36030136 -65.29096268 323.36030136 -66.44137573 323.36074829 C-68.91416155 323.35936035 -71.38664213 323.34382461 -73.859375 323.328125 C-75.57858618 323.32439296 -77.29779948 323.32154689 -79.01701355 323.31954956 C-83.53304966 323.31192814 -88.0489563 323.29229248 -92.56494141 323.2701416 C-97.17674 323.24965103 -101.78855959 323.24054098 -106.40039062 323.23046875 C-115.44276509 323.20904516 -124.48504364 323.17492723 -133.52734375 323.1328125 C-130.64827474 306.57228303 -126.94331909 290.64095124 -121.83984375 274.6328125 C-121.17888094 272.52158922 -120.51933996 270.40992037 -119.86108398 268.29785156 C-118.46973468 263.84021377 -117.07082972 259.38505285 -115.66601562 254.93164062 C-113.55073517 248.21905437 -111.46492115 241.4975825 -109.38671875 234.7734375 C-102.99196923 214.09322551 -96.55823936 193.42526203 -90.10273933 172.76394653 C-89.29266673 170.17090823 -88.4828794 167.57778103 -87.67320251 164.98461914 C-87.27197473 163.69961391 -87.27197473 163.69961391 -86.86264133 162.38864899 C-86.32265007 160.65919713 -85.78267394 158.92974055 -85.24271297 157.20027924 C-83.92434902 152.97826033 -82.60501989 148.75654774 -81.28347778 144.53552246 C-78.42606063 135.40799997 -75.58214205 126.27654637 -72.76470947 117.13659668 C-71.96969114 114.55902426 -71.1672366 111.9841835 -70.36029053 109.41027832 C-69.33217593 106.12680944 -68.32334693 102.8380761 -67.3203125 99.546875 C-67.02973465 98.633685 -66.7391568 97.720495 -66.43977356 96.77963257 C-64.6194668 90.69996132 -63.46484023 84.47019942 -64.52734375 78.1328125 C-67.67527361 74.15536267 -71.71988289 73.82964374 -76.52734375 73.1328125 C-79.45266285 72.90105777 -82.34439484 72.89474973 -85.27734375 72.9453125 C-86.116604 72.9546582 -86.95586426 72.96400391 -87.82055664 72.97363281 C-89.68987685 72.99974672 -91.55911295 73.03247469 -93.42822266 73.07080078 C-95.59961681 73.11424919 -97.77121026 73.14828303 -99.94287109 73.17529297 C-123.57556793 73.48654505 -144.20301492 77.1009138 -166.66577148 84.13476562 C-168.51924194 84.71387695 -168.51924194 84.71387695 -170.41015625 85.3046875 C-172.07135498 85.8320752 -172.07135498 85.8320752 -173.76611328 86.37011719 C-176.52734375 87.1328125 -176.52734375 87.1328125 -179.52734375 87.1328125 C-173.10446549 63.72161127 -150.39331021 38.01413825 -129.89453125 25.5078125 C-89.81753377 2.79057255 -44.90977117 -0.04992499 0 0 Z " fill="#FF0000" transform="translate(771.52734375,542.8671875)"/>
<path d="M0 0 C2.91231632 0.00423899 5.82463181 0.00716569 8.73694992 0.00988388 C53.76036454 0.05745029 53.76036454 0.05745029 76.16032028 0.39364243 C78.31667147 0.42529905 80.47309258 0.45254525 82.62955856 0.47506332 C85.53433322 0.50770968 88.43808936 0.55925256 91.34244919 0.61745834 C92.15589294 0.62385834 92.9693367 0.63025833 93.80743027 0.63685226 C99.80135009 0.79356153 105.79819527 1.71606755 110.33463669 5.97292709 C115.16685104 16.03852076 109.3311657 28.99249875 106.12614059 38.74782944 C105.06263917 42.09624546 104.19453106 45.47992324 103.30729294 48.87917709 C101.15104105 56.4527891 98.23066243 62.82118927 91.36979294 67.12917709 C83.72049335 70.71933462 75.98752884 71.26133888 67.64713669 71.34011459 C65.95637217 71.36820585 64.26561711 71.39687044 62.57487106 71.42605209 C59.95125968 71.46701935 57.32782018 71.50396918 54.70402145 71.53054428 C33.63837875 71.22317538 33.63837875 71.22317538 15.36979294 80.12917709 C7.42937656 89.35825294 3.95693372 101.78051519 0.61979294 113.25417709 C0.24894577 114.50674301 -0.1219014 115.75930893 -0.50398636 117.04983139 C-2.80029729 124.81392742 -5.05586621 132.58998008 -7.31825638 140.36400986 C-17.25953348 174.51432839 -27.48820461 208.55956388 -38.03793716 242.52651596 C-40.36878006 250.03450026 -42.67755346 257.54884403 -44.96190262 265.07113266 C-46.31887915 269.53551856 -47.68598162 273.99676408 -49.05495071 278.4574852 C-49.67857507 280.49795333 -50.29774519 282.53978922 -50.91200638 284.58309555 C-58.71070488 310.50241139 -58.71070488 310.50241139 -69.63020706 318.12917709 C-77.31895199 321.97354956 -88.38440257 320.25676163 -96.82161331 320.22683334 C-98.37816701 320.22496499 -99.93472129 320.22354306 -101.49127579 320.22254562 C-105.56004373 320.21875331 -109.62877518 320.20895162 -113.69752884 320.19784164 C-117.8606301 320.18755635 -122.02373734 320.18303284 -126.18684769 320.17800522 C-134.33465077 320.16732596 -142.48242436 320.15028968 -150.63020706 320.12917709 C-149.17914633 312.00262327 -147.05625756 304.12140262 -144.80598831 296.18386459 C-144.42415339 294.82843695 -144.04250523 293.47295669 -143.66102982 292.11742783 C-142.42826099 287.74444227 -141.18582074 283.3742309 -139.94270706 279.00417709 C-139.51104025 277.48404004 -139.07938955 275.96389841 -138.64775467 274.44375229 C-131.40857373 248.97090621 -123.75634005 223.65505497 -115.68550491 198.43258286 C-113.91191957 192.88071707 -112.14917331 187.3254108 -110.38603783 181.7702198 C-109.7454869 179.752073 -109.10473571 177.73398988 -108.46393204 175.71592331 C-106.31020682 168.9329199 -104.15771093 162.14952766 -102.00642776 155.36574936 C-101.3748667 153.37450436 -100.74328185 151.38326691 -100.11168098 149.39203453 C-99.69500815 148.07826468 -99.27840864 146.76447156 -98.86188316 145.45065498 C-96.35400618 137.54067126 -93.83264815 129.63518287 -91.29281998 121.73539352 C-89.9540492 117.56306745 -88.62660316 113.38720189 -87.30211258 109.21032333 C-86.69618519 107.30845869 -86.0852265 105.40818833 -85.46879959 103.50970078 C-84.62912687 100.92203068 -83.80736657 98.32930174 -82.98958206 95.73464584 C-82.74690094 95.00212601 -82.50421982 94.26960617 -82.25418472 93.51488876 C-80.58321126 88.11811656 -79.92748366 82.76889918 -80.63020706 77.12917709 C-82.51535929 74.55280238 -83.82355563 73.53250281 -86.63020706 72.12917709 C-103.74866633 70.89853559 -120.99936574 72.71619731 -138.00520706 74.50417709 C-140.23556243 74.72926181 -142.46603157 74.95322196 -144.69661331 75.17605209 C-152.84915853 75.99576796 -160.99955532 76.83258131 -169.14290237 77.73952866 C-169.99671494 77.83335831 -170.8505275 77.92718796 -171.73021317 78.02386093 C-173.28341741 78.19540271 -174.83619391 78.37089686 -176.38835526 78.55163193 C-181.4938947 79.11444555 -186.49330045 79.19675966 -191.63020706 79.12917709 C-187.94535663 66.68557222 -180.15740625 55.716676 -171.63020706 46.12917709 C-170.94571487 45.30159897 -170.26122269 44.47402084 -169.55598831 43.62136459 C-147.46783066 17.57285335 -113.35233572 4.73749398 -80.13727188 1.4151268 C-73.63120266 0.88465226 -67.11449937 0.7214187 -60.59114456 0.55886459 C-59.82404663 0.53855305 -59.0569487 0.5182415 -58.26660538 0.49731445 C-38.84655575 -0.00925221 -19.42544582 -0.02885294 0 0 Z " fill="#FF0000" transform="translate(1204.6302070617676,928.8708229064941)"/>
<path d="M0 0 C1.23935303 0.00862061 2.47870605 0.01724121 3.75561523 0.02612305 C35.82199157 0.33961232 35.82199157 0.33961232 42.55078125 6.10546875 C45.75330652 9.89027134 45.72833256 13.73115222 45.62231445 18.48608398 C45.26673576 22.7342547 44.45497856 26.68692297 43.45703125 30.82421875 C43.24177292 31.71907486 43.02651459 32.61393097 42.80473328 33.53590393 C39.17819091 48.1676774 34.71870922 62.58586176 30.40164948 77.02505112 C29.34383298 80.56624816 28.2902426 84.10869768 27.23646164 87.6510973 C16.98430445 122.10902064 6.58187894 156.52177315 -3.85389137 190.92445564 C-7.91944116 204.32836514 -11.96248869 217.73891342 -15.99254227 231.15353584 C-17.7759232 237.08786685 -19.56218308 243.02133207 -21.34838676 248.95481396 C-22.77215858 253.68537672 -24.19399897 258.41650166 -25.61126709 263.14901733 C-26.93183833 267.55858522 -28.25752354 271.96658475 -29.5868721 276.37351418 C-30.06957709 277.97704791 -30.5504433 279.58113669 -31.02918625 281.18585777 C-33.42223134 289.2040146 -35.94091575 297.14815146 -38.84277344 304.99853516 C-39.08416172 305.65832556 -39.32555 306.31811596 -39.57425308 306.99790001 C-41.41670964 311.86768603 -43.32586424 316.14819957 -47.6875 319.1875 C-54.65821997 321.5540403 -61.42671993 321.47799149 -68.734375 321.453125 C-70.60576141 321.45599518 -70.60576141 321.45599518 -72.51495361 321.45892334 C-75.81802447 321.46062619 -79.12090462 321.45262951 -82.4239502 321.44140625 C-84.42983078 321.43751488 -86.4355354 321.4413799 -88.44140625 321.44824219 C-92.33080985 321.46069594 -96.21996012 321.45907202 -100.109375 321.453125 C-101.29102234 321.45717346 -102.47266968 321.46122192 -103.69012451 321.46539307 C-122.79243107 321.35924088 -122.79243107 321.35924088 -127.47288513 317.84819031 C-130.2361982 314.07003202 -129.81507056 309.15548701 -129.2331543 304.73999023 C-125.78957622 290.79271282 -121.46765916 277.11236424 -117.17508316 263.40825653 C-115.29090939 257.38450927 -113.4225009 251.35583281 -111.55116844 245.32808685 C-111.05633932 243.73449878 -110.56129253 242.14097827 -110.06603432 240.5475235 C-104.2344264 221.7845313 -98.51455141 202.98784407 -92.79879379 184.18930435 C-84.62959702 157.3251977 -76.40121272 130.48167399 -68.03955078 103.67675781 C-64.50220086 92.32625011 -61.00137203 80.96585314 -57.57419968 69.58160019 C-56.98450483 67.62278183 -56.39413257 65.66416872 -55.80361938 63.70559692 C-53.94498755 57.53856965 -52.09357162 51.3694917 -50.25390625 45.19677734 C-49.59007002 42.98788772 -48.92601901 40.77906262 -48.26171875 38.5703125 C-47.97290329 37.59173279 -47.68408783 36.61315308 -47.38652039 35.60491943 C-43.68444975 23.35143563 -39.73809689 10.32714738 -27.8125 3.75 C-18.78440216 0.05952244 -9.63478472 -0.10612 0 0 Z " fill="#FF0000" transform="translate(929.6875,928.8125)"/>
</svg>
