<?xml version="1.0" standalone="no"?>
<!DOCTYPE svg PUBLIC "-//W3C//DTD SVG 20010904//EN"
 "http://www.w3.org/TR/2001/REC-SVG-20010904/DTD/svg10.dtd">
<svg version="1.0" xmlns="http://www.w3.org/2000/svg"
 width="1254.000000pt" height="1254.000000pt" viewBox="0 0 1254.000000 1254.000000"
 preserveAspectRatio="xMidYMid meet">

<g transform="translate(0.000000,1254.000000) scale(0.100000,-0.100000)"
fill="#000000" stroke="none">
<path d="M5985 10769 c-436 -21 -953 -101 -1395 -215 -386 -99 -967 -315
-1289 -479 l-48 -24 18 -129 c47 -344 81 -698 95 -1014 l6 -138 45 0 c25 0 74
5 109 12 l64 11 0 524 0 524 103 49 c692 326 1611 534 2462 557 626 16 1394
-96 2010 -294 246 -79 583 -211 738 -289 l47 -24 0 -520 0 -520 25 -10 c41
-16 187 -28 190 -16 2 6 8 124 14 261 13 267 37 523 76 805 14 96 25 184 25
196 0 17 -21 31 -107 72 -847 401 -1702 615 -2638 662 -220 11 -325 11 -550
-1z"/>
<path d="M6155 10154 c-152 -34 -276 -130 -339 -264 -30 -64 -31 -68 -31 -216
l0 -151 -29 1 c-22 1 -33 -6 -44 -25 -14 -23 -13 -37 11 -145 29 -129 48 -164
94 -177 28 -8 30 -13 40 -82 13 -94 37 -142 124 -249 39 -48 69 -90 66 -92 -2
-3 -41 29 -85 71 l-80 76 -7 -58 c-4 -32 -8 -62 -10 -68 -1 -5 -58 -32 -126
-58 -131 -52 -237 -108 -307 -165 l-42 -35 -133 -1 c-90 -2 -152 -8 -196 -20
-134 -37 -250 -114 -328 -219 -53 -73 -78 -127 -100 -218 -16 -63 -18 -67 -67
-94 -109 -59 -173 -145 -197 -263 l-13 -61 -34 52 c-19 29 -72 90 -117 137
-87 90 -147 191 -180 302 l-16 56 113 111 113 112 249 16 248 15 64 45 c138
96 241 127 434 127 l136 1 67 44 c37 24 66 45 65 46 -6 6 -1052 -50 -1268 -67
-34 -3 -118 56 -126 88 -12 46 -73 59 -116 25 -16 -13 -29 -17 -39 -10 -22 14
-81 11 -113 -6 -15 -8 -43 -15 -61 -15 -18 0 -47 -10 -66 -23 -19 -12 -45 -23
-57 -24 -34 -3 -71 -29 -78 -57 -6 -26 -19 -29 -216 -42 l-98 -7 0 -113 c0
-62 3 -114 8 -116 4 -2 70 1 147 7 77 6 143 10 146 8 4 -1 9 -24 13 -51 6 -43
25 -81 80 -157 21 -30 61 -222 96 -465 36 -248 51 -316 95 -420 38 -91 83
-163 161 -256 32 -39 75 -91 94 -117 60 -80 115 -93 236 -56 82 25 430 188
494 232 76 51 163 132 215 200 28 36 52 66 55 66 3 1 18 -40 34 -90 40 -124
85 -215 161 -324 90 -130 105 -187 105 -409 0 -110 6 -204 16 -268 l16 -97
-37 -148 c-20 -81 -38 -154 -40 -160 -4 -10 184 -13 915 -13 l920 0 -7 33 c-3
17 -22 91 -43 163 -37 131 -37 131 -22 195 9 42 15 132 17 264 2 149 7 217 20
265 20 77 24 86 88 173 69 95 120 199 157 316 17 56 34 101 38 101 4 0 15 -13
24 -28 30 -50 149 -171 212 -216 33 -24 147 -85 251 -136 352 -169 419 -178
512 -63 21 27 61 75 89 108 64 74 132 181 166 260 41 93 66 203 94 410 34 261
79 461 110 498 35 42 56 85 69 142 l12 50 74 -4 c41 -2 107 -6 148 -10 51 -5
74 -4 77 4 3 6 3 58 2 116 l-3 104 -130 11 c-71 7 -140 12 -152 13 -13 1 -23
7 -23 15 0 8 -11 27 -23 42 -17 20 -33 27 -58 27 -21 0 -45 9 -62 23 -18 16
-42 24 -65 24 -20 1 -48 7 -62 15 -29 16 -106 20 -115 5 -4 -6 -17 -1 -34 11
-44 33 -90 23 -117 -24 -12 -21 -37 -49 -57 -63 -43 -29 -58 -29 -343 -9 -215
15 -926 55 -979 55 -27 -1 -28 -2 -10 -12 11 -6 42 -27 70 -47 l50 -36 140 -1
c196 -1 285 -26 424 -119 l81 -54 244 -16 243 -17 113 -109 114 -109 -12 -50
c-6 -27 -31 -89 -54 -137 -34 -69 -60 -105 -125 -170 -45 -46 -97 -106 -115
-134 l-33 -52 -12 52 c-25 116 -91 204 -192 260 -54 29 -54 30 -73 103 -28
113 -73 193 -154 274 -128 129 -303 192 -508 182 l-90 -4 -68 51 c-79 59 -171
107 -315 161 l-101 38 -7 68 -7 68 -81 -75 c-44 -41 -84 -75 -88 -75 -5 0 23
39 62 88 89 110 117 164 132 257 11 69 13 74 42 82 41 11 66 65 94 195 17 81
20 111 11 132 -9 25 -14 28 -43 23 l-32 -5 3 119 c5 179 -25 272 -120 375
-112 121 -307 177 -483 138z m-217 -1880 c77 -16 165 -54 256 -113 28 -17 61
-31 76 -31 14 0 50 16 79 36 79 53 174 94 258 110 78 15 240 18 307 6 36 -6
28 -9 -75 -26 -263 -44 -491 -164 -545 -287 -10 -21 -21 -39 -24 -39 -4 0 -15
18 -25 41 -57 124 -288 244 -555 287 -88 14 -99 18 -70 23 69 13 241 9 318 -7z
m358 -559 c31 -181 60 -237 148 -280 96 -47 229 -67 406 -63 136 4 165 8 234
32 123 42 232 121 332 239 l40 48 -4 -63 c-4 -56 -9 -69 -47 -118 -52 -68 -95
-98 -212 -150 -155 -69 -224 -83 -413 -84 -151 -1 -174 1 -275 27 -60 16 -138
42 -173 59 l-63 29 -82 -34 c-155 -66 -240 -82 -432 -81 -208 1 -279 17 -444
101 -100 51 -120 66 -162 118 -28 35 -48 71 -49 85 0 14 -5 42 -11 63 -6 22
-9 40 -7 42 2 2 22 -20 45 -50 95 -123 251 -221 398 -251 184 -37 451 -10 578
58 82 45 108 95 138 268 25 144 31 167 36 125 2 -16 10 -70 19 -120z m28 -810
c10 -14 29 -30 44 -36 21 -8 185 -37 227 -40 28 -1 -51 -22 -135 -34 -58 -9
-105 -22 -120 -33 -37 -28 -55 -110 -41 -186 17 -98 33 -107 206 -122 l79 -6
-34 -15 c-19 -8 -68 -21 -108 -29 -40 -7 -82 -19 -92 -24 -30 -16 -49 -62 -62
-147 -6 -43 -14 -81 -18 -86 -3 -4 -11 31 -18 77 -12 92 -31 139 -62 156 -10
5 -52 16 -92 24 -41 8 -89 21 -108 29 l-35 14 80 7 c139 12 153 16 179 46 50
60 41 221 -15 262 -15 12 -54 23 -96 28 -78 10 -166 30 -160 37 3 2 51 11 108
19 56 8 116 22 132 30 35 19 53 60 67 156 17 111 21 111 40 0 10 -56 25 -113
34 -127z m527 33 c29 -109 34 -221 13 -288 -12 -37 -17 -82 -16 -135 1 -44 -2
-102 -8 -128 -10 -49 -77 -204 -84 -196 -3 2 2 29 10 59 19 72 18 188 -2 246
-15 46 -15 48 12 108 25 53 29 75 31 166 2 118 13 253 20 246 3 -3 14 -38 24
-78z m-1115 -35 c11 -39 12 -67 5 -116 -10 -73 -2 -134 29 -206 21 -47 21 -50
4 -100 -12 -39 -15 -73 -11 -144 3 -50 8 -103 11 -117 3 -14 -9 7 -28 45 -44
89 -60 162 -52 241 5 44 2 71 -9 98 -34 81 -29 217 13 356 15 49 17 52 20 25
2 -16 10 -53 18 -82z"/>
<path d="M2815 9547 c-32 -32 -33 -35 -39 -147 -4 -63 -5 -574 -4 -1135 3
-983 4 -1021 22 -1048 36 -53 66 -61 205 -53 87 5 133 11 149 22 54 35 52 -5
52 1188 0 705 -4 1114 -10 1131 -5 14 -22 37 -36 50 -26 24 -32 25 -166 25
l-140 0 -33 -33z"/>
<path d="M9388 9557 c-14 -12 -31 -32 -37 -44 -8 -15 -11 -350 -11 -1138 0
-1232 -4 -1155 63 -1195 27 -17 51 -20 150 -20 134 0 166 11 193 63 16 29 17
126 17 1147 1 1029 0 1117 -16 1147 -31 58 -47 63 -197 63 -125 0 -137 -2
-162 -23z"/>
<path d="M2355 9399 c-11 -6 -29 -22 -40 -37 -20 -27 -20 -45 -23 -987 -1
-528 0 -970 3 -982 3 -12 17 -35 31 -52 l26 -31 142 0 c131 0 144 2 165 21 12
11 26 32 32 46 5 14 9 412 9 989 0 1037 1 1006 -49 1034 -25 13 -269 12 -296
-1z"/>
<path d="M9873 9386 l-28 -24 -3 -979 c-1 -538 0 -987 3 -999 2 -11 17 -33 31
-47 26 -27 29 -27 163 -27 110 0 141 3 160 16 52 37 51 11 51 1034 0 918 -1
952 -19 988 -28 54 -53 62 -201 62 -122 0 -130 -1 -157 -24z"/>
<path d="M1929 9021 l-29 -29 0 -642 0 -642 30 -30 30 -30 105 4 c99 3 106 5
132 31 l28 27 3 613 c2 336 0 627 -3 646 -4 18 -17 44 -30 57 -22 22 -32 24
-130 24 -104 0 -107 -1 -136 -29z"/>
<path d="M10358 9034 c-17 -9 -31 -28 -38 -52 -8 -25 -10 -231 -8 -655 l3
-619 34 -30 c33 -30 34 -30 138 -26 101 3 106 4 129 31 l24 28 0 640 0 641
-29 29 c-29 28 -32 29 -128 29 -67 -1 -107 -5 -125 -16z"/>
<path d="M1660 8463 c-19 -3 -41 -9 -47 -15 -17 -14 -18 -199 -1 -216 13 -13
154 -17 196 -6 21 6 22 10 22 125 l0 119 -67 -2 c-38 0 -84 -3 -103 -5z"/>
<path d="M10710 8353 c0 -101 3 -122 16 -127 29 -11 189 -7 202 6 14 14 17
195 4 215 -5 8 -47 15 -115 19 l-107 7 0 -120z"/>
<path d="M3330 6967 c0 -12 66 -195 110 -302 96 -237 219 -468 394 -743 l91
-143 200 7 c110 3 201 7 202 8 2 2 -39 54 -89 117 -201 250 -405 606 -529 922
l-53 137 -163 0 c-90 0 -163 -1 -163 -3z"/>
<path d="M8835 6848 c-140 -357 -318 -668 -535 -936 -50 -63 -90 -115 -88
-117 2 -1 92 -5 200 -8 l197 -6 94 142 c160 244 258 423 361 658 49 115 146
365 146 380 0 5 -73 9 -163 9 l-163 0 -49 -122z"/>
<path d="M5555 5513 l-200 -3 3 -727 c2 -400 4 -728 5 -728 1 -1 153 1 337 4
327 6 336 7 380 30 54 29 154 123 169 159 8 19 11 183 9 559 l-3 531 -31 39
c-17 21 -62 61 -99 88 l-68 50 -151 1 c-83 0 -241 -1 -351 -3z m375 -283 c23
-23 21 10 20 -525 l0 -330 -26 -22 c-23 -21 -35 -23 -140 -23 l-114 0 0 460 0
460 120 0 c107 0 122 -2 140 -20z"/>
<path d="M6489 5515 c-4 -3 -2 -28 3 -55 5 -27 7 -353 6 -725 l-3 -675 323 -2
c177 -1 350 -2 385 -3 l62 0 0 135 0 135 -227 3 -228 2 0 171 0 172 190 -8
190 -7 0 131 0 131 -68 0 c-38 0 -124 3 -190 7 l-122 6 0 160 0 159 223 -3
222 -4 3 128 c2 97 0 128 -10 131 -21 7 -753 17 -759 11z"/>
<path d="M7458 5504 c-3 -2 -1 -24 3 -47 5 -23 8 -350 8 -727 l0 -685 148 -3
148 -2 -2 472 c-1 272 2 462 7 448 16 -46 92 -331 170 -635 l77 -300 109 -5
c60 -3 111 -4 112 -3 5 2 242 893 242 909 0 8 3 14 8 14 4 0 7 -28 7 -62 0
-35 1 -246 3 -470 2 -377 3 -407 20 -412 9 -3 76 -8 147 -12 l130 -6 0 745 0
745 -100 6 c-55 3 -149 6 -210 7 -98 1 -110 0 -117 -17 -4 -11 -57 -212 -118
-449 -61 -236 -113 -434 -115 -440 -4 -14 -1 -25 -130 465 -64 245 -120 448
-124 451 -7 8 -416 21 -423 13z"/>
<path d="M4534 5493 l-81 -4 -31 -147 c-16 -81 -71 -336 -121 -567 -51 -231
-107 -494 -127 -585 -19 -91 -37 -171 -40 -179 -4 -11 22 -12 153 -6 87 4 161
11 164 16 3 5 16 71 28 148 l24 138 75 7 c41 3 114 6 162 6 l87 0 21 -123 c12
-68 22 -131 22 -141 0 -17 11 -18 160 -14 87 2 161 6 164 9 3 3 -3 42 -14 88
-11 45 -41 176 -66 289 -40 182 -221 973 -239 1045 l-7 27 -127 -2 c-69 -1
-162 -4 -207 -5z m191 -618 c30 -155 55 -284 55 -287 0 -7 -219 -22 -226 -15
-3 3 21 139 52 302 32 163 59 293 61 288 1 -4 27 -134 58 -288z"/>
<path d="M3479 5461 c-153 -7 -170 -13 -262 -106 -93 -92 -87 -49 -87 -680 0
-615 -3 -584 67 -645 77 -68 122 -90 184 -90 107 0 412 31 446 45 54 23 179
153 192 200 6 22 11 105 11 183 l0 144 -122 -7 c-68 -3 -138 -8 -155 -11 l-33
-5 0 -103 c0 -97 -2 -105 -25 -128 -19 -19 -40 -27 -86 -32 -100 -10 -118 -8
-144 19 l-25 24 0 426 c0 294 3 433 11 448 24 46 49 57 140 57 118 0 127 -10
131 -145 l3 -99 60 2 c33 1 102 5 153 8 l92 6 0 142 c0 115 -4 148 -19 181
-20 44 -78 101 -149 146 -51 32 -65 33 -383 20z"/>
<path d="M9044 5438 c3 -13 6 -352 6 -754 l0 -731 138 -11 c76 -7 149 -12 163
-12 l24 0 0 759 0 758 -119 7 c-66 3 -141 6 -169 6 -46 0 -49 -1 -43 -22z"/>
<path d="M2420 5406 l-175 -11 -23 -115 c-13 -63 -91 -430 -173 -814 -82 -384
-148 -700 -146 -702 4 -4 326 42 331 47 2 2 15 73 29 158 14 84 28 156 31 158
4 5 292 43 322 43 6 0 21 -59 34 -140 13 -77 27 -145 31 -152 6 -9 44 -8 166
6 87 10 159 19 161 20 2 3 -104 484 -282 1271 -25 110 -48 210 -51 223 -6 25
12 25 -255 8z m103 -668 c31 -160 55 -293 53 -295 -6 -6 -226 -27 -231 -21 -6
5 107 608 114 608 3 0 32 -131 64 -292z"/>
<path d="M9866 5409 c-3 -8 -10 -41 -16 -74 -7 -33 -79 -363 -161 -733 -82
-370 -150 -678 -152 -685 -1 -7 37 -15 116 -23 64 -7 139 -15 165 -19 l47 -6
25 148 25 148 70 -2 c39 -1 113 -7 167 -14 l96 -11 10 -57 c6 -31 18 -104 28
-163 10 -60 23 -108 29 -108 5 0 80 -11 165 -24 85 -13 156 -23 157 -22 2 2
-42 219 -115 561 -16 72 -73 342 -127 601 l-100 472 -115 6 c-63 3 -159 9
-212 12 -78 5 -99 4 -102 -7z m334 -982 c0 -7 -97 -1 -190 12 -41 6 -45 9 -42
31 4 37 102 542 109 565 5 15 122 -564 123 -608z"/>
<path d="M6090 3663 c-42 -16 -50 -34 -50 -120 0 -70 3 -86 20 -103 30 -30
103 -28 135 5 22 21 25 33 25 95 0 66 -2 74 -29 101 -29 28 -63 36 -101 22z
m65 -66 c4 -13 5 -46 3 -73 -3 -47 -4 -49 -33 -49 -30 0 -30 1 -33 58 -2 35 2
64 9 73 18 22 48 17 54 -9z"/>
<path d="M6383 3660 c-33 -14 -43 -42 -43 -124 0 -93 16 -116 83 -116 52 0 87
22 87 56 0 19 -5 24 -24 24 -13 0 -26 -7 -30 -15 -3 -8 -17 -15 -31 -15 -27 0
-28 5 -25 90 1 25 5 49 10 53 12 13 50 -2 50 -19 0 -8 10 -14 25 -14 20 0 25
5 25 24 0 49 -69 79 -127 56z"/>
<path d="M6684 3660 c-39 -15 -54 -50 -54 -121 0 -91 21 -119 91 -119 74 0 89
20 89 120 0 67 -3 83 -20 100 -11 11 -29 20 -39 20 -11 0 -25 2 -33 4 -7 3
-23 1 -34 -4z m61 -50 c3 -5 8 -36 10 -69 4 -66 -9 -87 -45 -76 -18 6 -20 15
-20 75 0 67 5 77 37 79 6 1 15 -3 18 -9z"/>
<path d="M5770 3540 l0 -120 30 0 c29 0 30 1 30 50 l0 50 40 0 c33 0 40 3 40
20 0 17 -7 20 -40 20 -38 0 -40 2 -40 30 0 29 2 30 45 30 38 0 45 3 45 20 0
18 -7 20 -75 20 l-75 0 0 -120z"/>
<path d="M5005 3628 c-13 -34 -62 -228 -59 -231 13 -12 53 8 58 29 5 19 13 24
40 24 28 0 35 -5 40 -25 5 -18 13 -25 31 -25 14 0 25 6 25 13 0 6 -14 60 -31
120 l-32 107 -34 0 c-18 0 -36 -6 -38 -12z m54 -120 c1 -12 -6 -18 -19 -18
-17 0 -19 4 -14 28 4 15 9 31 12 36 6 11 20 -20 21 -46z"/>
<path d="M7460 3520 l0 -120 31 0 c30 0 30 1 27 43 -4 56 20 57 40 0 12 -31
22 -43 41 -46 39 -8 42 -1 20 49 -19 42 -19 47 -5 63 23 25 20 87 -4 111 -16
16 -33 20 -85 20 l-65 0 0 -120z m98 71 c8 -4 12 -19 10 -32 -4 -30 -51 -35
-56 -6 -8 39 15 58 46 38z"/>
<path d="M4640 3505 l0 -125 25 0 c23 0 24 3 27 73 l3 72 35 -67 c30 -59 38
-68 62 -68 l28 0 0 120 0 120 -25 0 c-23 0 -24 -4 -27 -62 l-3 -63 -35 62
c-30 53 -39 63 -62 63 l-28 0 0 -125z"/>
<path d="M7760 3510 l0 -120 44 0 c24 0 58 -3 75 -6 28 -6 31 -4 31 20 0 24
-3 26 -45 26 -43 0 -45 1 -45 30 0 28 2 30 40 30 33 0 40 3 40 20 0 14 -7 20
-22 20 -48 0 -65 10 -60 35 4 22 8 24 48 18 42 -5 44 -5 44 21 0 26 -1 26 -75
26 l-75 0 0 -120z"/>
<path d="M4450 3500 l0 -120 25 0 25 0 0 120 0 120 -25 0 -25 0 0 -120z"/>
<path d="M8058 3610 c-22 -13 -32 -63 -18 -89 6 -12 32 -31 58 -43 53 -26 62
-51 20 -56 -20 -2 -28 1 -28 12 0 11 -9 16 -30 16 -22 0 -30 -5 -30 -18 0 -33
38 -57 90 -57 55 0 80 17 80 55 0 46 -10 60 -62 86 -33 17 -48 30 -46 41 5 25
25 26 47 4 27 -27 61 -28 61 -2 0 45 -94 79 -142 51z"/>
<path d="M4203 3602 c-22 -3 -23 -7 -23 -123 l0 -119 38 0 c73 0 112 11 112
31 0 16 -8 19 -45 19 l-45 0 0 94 c0 52 -3 96 -7 98 -5 2 -18 2 -30 0z"/>
<path d="M8330 3500 c0 -122 11 -140 89 -140 80 0 94 25 89 155 -3 79 -3 80
-30 83 l-27 3 -3 -98 c-3 -97 -3 -98 -28 -98 -25 0 -25 1 -28 98 l-3 97 -29 0
-30 0 0 -100z"/>
<path d="M3890 3465 l0 -125 25 0 c23 0 25 4 25 45 0 45 0 45 35 45 49 0 85
36 85 85 0 56 -27 75 -105 75 l-65 0 0 -125z m98 76 c8 -4 12 -19 10 -32 -2
-18 -10 -25 -30 -27 -25 -3 -28 0 -28 27 0 25 9 37 30 40 3 0 11 -3 18 -8z"/>
<path d="M8635 3578 c-3 -8 -4 -63 -3 -124 l3 -109 73 -3 c66 -3 72 -1 72 17
0 16 -8 20 -42 23 l-43 3 -5 100 c-5 94 -6 100 -28 103 -12 2 -24 -3 -27 -10z"/>
<path d="M3707 3573 c-4 -3 -7 -60 -7 -125 l0 -118 24 0 c14 0 28 5 31 11 4 5
4 62 0 125 -6 98 -10 114 -25 114 -9 0 -20 -3 -23 -7z"/>
<path d="M5416 3564 c-31 -30 -9 -84 34 -84 40 0 66 60 38 88 -17 17 -54 15
-72 -4z"/>
<path d="M7092 3568 c-7 -7 -12 -25 -12 -40 0 -34 41 -59 68 -41 21 12 28 59
11 79 -14 17 -51 18 -67 2z"/>
<path d="M8869 3568 c-8 -29 -4 -37 22 -43 l28 -6 3 -97 c3 -96 3 -97 28 -97
25 0 25 1 28 98 3 96 3 97 27 97 18 0 25 5 25 19 0 14 -10 20 -46 25 -47 6
-113 8 -115 4z"/>
<path d="M3420 3540 c-26 -26 -33 -59 -28 -132 4 -48 9 -65 27 -79 50 -41 151
-9 151 47 0 31 -39 33 -58 3 -8 -13 -21 -19 -35 -17 -20 3 -22 8 -22 73 0 69
0 70 28 73 19 2 27 -1 27 -12 0 -11 9 -16 30 -16 23 0 30 4 30 20 0 55 -106
84 -150 40z"/>
<path d="M9179 3508 c-6 -24 -20 -70 -30 -103 -25 -81 -25 -95 6 -95 15 0 25
6 25 14 0 41 74 41 84 0 5 -17 13 -24 31 -24 32 0 32 8 -7 141 l-31 109 -33 0
c-31 0 -34 -3 -45 -42z m61 -77 c8 -28 7 -31 -15 -31 -22 0 -23 2 -12 35 12
40 14 40 27 -4z"/>
<path d="M3125 3515 c-45 -44 -28 -97 35 -116 44 -13 65 -32 55 -49 -10 -16
-52 -12 -59 6 -8 20 -50 14 -54 -8 -9 -45 77 -75 131 -47 29 16 37 28 37 64 0
41 -8 51 -63 74 -51 22 -64 51 -22 51 14 0 25 -4 25 -10 0 -5 14 -10 30 -10
36 0 40 20 10 50 -29 29 -94 27 -125 -5z"/>
<path d="M9449 3529 c0 -2 -2 -56 -3 -120 l-3 -117 36 -6 c62 -10 87 -7 115
15 24 19 26 26 26 94 0 100 -19 123 -107 132 -35 3 -63 4 -64 2z m106 -124 c0
-69 0 -70 -27 -73 l-28 -3 0 76 0 76 28 -3 c27 -3 27 -4 27 -73z"/>
<path d="M2922 3398 l3 -123 25 3 c14 2 25 5 25 5 0 1 -1 55 -3 120 -4 116 -4
117 -28 117 l-25 0 3 -122z"/>
<path d="M9784 3485 c-36 -15 -44 -36 -44 -118 0 -51 4 -62 29 -88 36 -35 95
-40 132 -10 22 17 24 26 22 96 -1 67 -4 81 -25 100 -30 29 -75 37 -114 20z
m75 -49 c7 -9 11 -38 9 -73 -3 -57 -3 -58 -33 -58 -30 0 -30 1 -33 59 -2 32
-1 65 2 72 7 18 40 18 55 0z"/>
<path d="M2622 3482 c-19 -13 -5 -245 15 -237 8 3 35 5 59 5 34 0 51 6 69 25
22 21 25 33 25 97 0 103 -12 118 -93 118 -34 0 -68 -4 -75 -8z m106 -116 c-3
-58 -4 -61 -30 -64 l-28 -3 0 70 c0 58 3 70 18 73 33 8 43 -12 40 -76z"/>
<path d="M4858 3100 c-76 -3 -140 -9 -143 -12 -17 -16 495 -448 780 -658 231
-170 494 -350 673 -459 l102 -63 163 98 c404 243 829 553 1143 835 79 71 264
248 264 253 0 2 -97 7 -215 11 l-215 7 -63 -52 c-327 -272 -626 -491 -989
-723 l-87 -56 -193 131 c-228 154 -554 396 -772 572 l-156 126 -77 -2 c-43 -1
-140 -4 -215 -8z"/>
</g>
</svg>
